<svg xmlns="http://www.w3.org/2000/svg" viewBox="0 0 1000 1000" fill="none" stroke="#D4A85A" stroke-width="34" stroke-linejoin="round">
  <circle cx="500" cy="500" r="450"></circle>
  <path d="M 60 500 C 165 442 290 225 500 225 C 710 225 835 442 940 500 C 835 558 710 775 500 775 C 290 775 165 558 60 500 Z"></path>
  <path d="M 500 225 C 585 330 650 408 650 500 C 650 592 585 670 500 775 C 415 670 350 592 350 500 C 350 408 415 330 500 225 Z"></path>
  <circle cx="500" cy="500" r="150" stroke-width="40"></circle>
  <circle cx="500" cy="500" r="40" fill="#D4A85A" stroke="none"></circle>
</svg>