<svg xmlns="http://www.w3.org/2000/svg" viewBox="0 0 1000 1000" fill="none" stroke="#BF9B6B" stroke-width="6" stroke-linejoin="round">
  <circle cx="500" cy="500" r="460"></circle>
  <path d="M 40 500 C 150 440 280 214 500 214 C 720 214 850 440 960 500 C 850 560 720 786 500 786 C 280 786 150 560 40 500 Z"></path>
  <circle cx="500" cy="500" r="280"></circle>
  <path d="M 500 220 C 590 326 649 400 649 500 C 649 600 590 674 500 780 C 410 674 351 600 351 500 C 351 400 410 326 500 220 Z"></path>
  <circle cx="500" cy="500" r="149"></circle>
  <path d="M 351 500 C 400 465 430 406 500 406 C 570 406 600 465 649 500 C 600 535 570 594 500 594 C 430 594 400 535 351 500 Z"></path>
  <circle cx="500" cy="500" r="90"></circle>
  <circle cx="500" cy="500" r="9" fill="#BF9B6B" stroke="none"></circle>
</svg>